<svg xmlns="http://www.w3.org/2000/svg" width="1680" height="480" viewBox="0 0 1680 480" role="img">
  <defs>
    <linearGradient id="g106" x1="0" y1="0" x2="1" y2="1">
      <stop offset="0%" stop-color="#18174a" />
      <stop offset="100%" stop-color="#343073" />
    </linearGradient>
  </defs>
  <rect width="1680" height="480" fill="url(#g106)" />
  
    <g stroke="#ffffff" stroke-width="1" opacity="0.07"><line x1="120" y1="0" x2="48" y2="480" /><line x1="240" y1="0" x2="168" y2="480" /><line x1="360" y1="0" x2="288" y2="480" /><line x1="480" y1="0" x2="408" y2="480" /><line x1="600" y1="0" x2="528" y2="480" /><line x1="720" y1="0" x2="648" y2="480" /><line x1="840" y1="0" x2="768" y2="480" /><line x1="960" y1="0" x2="888" y2="480" /><line x1="1080" y1="0" x2="1008" y2="480" /><line x1="1200" y1="0" x2="1128" y2="480" /><line x1="1320" y1="0" x2="1248" y2="480" /><line x1="1440" y1="0" x2="1368" y2="480" /><line x1="1560" y1="0" x2="1488" y2="480" /><line x1="0" y1="120" x2="1680" y2="120" /><line x1="0" y1="240" x2="1680" y2="240" /><line x1="0" y1="360" x2="1680" y2="360" /></g>
    <g fill="#c8a24b" opacity="0.17"><circle cx="466" cy="429" r="2.9" /><circle cx="994" cy="14" r="4.6" /><circle cx="57" cy="361" r="3.0" /><circle cx="1128" cy="428" r="2.6" /><circle cx="271" cy="373" r="2.2" /><circle cx="1547" cy="452" r="4.7" /><circle cx="57" cy="309" r="4.2" /><circle cx="339" cy="214" r="4.5" /><circle cx="767" cy="47" r="3.3" /><circle cx="1549" cy="143" r="3.5" /><circle cx="1057" cy="223" r="3.2" /><circle cx="1099" cy="54" r="3.0" /><circle cx="683" cy="146" r="2.2" /><circle cx="161" cy="418" r="2.9" /><circle cx="1531" cy="390" r="1.8" /><circle cx="118" cy="85" r="1.8" /><circle cx="1458" cy="24" r="3.3" /><circle cx="506" cy="119" r="2.6" /><circle cx="117" cy="94" r="4.0" /><circle cx="543" cy="203" r="4.6" /><circle cx="1251" cy="34" r="1.9" /><circle cx="1549" cy="421" r="1.7" /><circle cx="528" cy="53" r="2.2" /><circle cx="400" cy="144" r="3.2" /><circle cx="1120" cy="396" r="3.5" /><circle cx="1558" cy="128" r="4.8" /><circle cx="1235" cy="329" r="3.8" /><circle cx="1466" cy="360" r="1.8" /><circle cx="582" cy="188" r="4.3" /><circle cx="1154" cy="230" r="2.4" /><circle cx="222" cy="272" r="1.9" /></g>
  <rect x="0" y="474" width="1680" height="6" fill="#c8a24b" />
</svg>
