<svg xmlns="http://www.w3.org/2000/svg" width="1200" height="900" viewBox="0 0 1200 900" role="img">
  <defs>
    <linearGradient id="t305" x1="0" y1="0" x2="1" y2="1">
      <stop offset="0%" stop-color="#252260" />
      <stop offset="100%" stop-color="#6f6bb8" />
    </linearGradient>
  </defs>
  <rect width="1200" height="900" fill="url(#t305)" />
  <g fill="#ffffff" opacity="0.08"><rect x="695" y="668" width="242" height="74" rx="37" /><rect x="780" y="308" width="334" height="78" rx="39" /><rect x="799" y="689" width="273" height="104" rx="52" /><rect x="157" y="19" width="274" height="170" rx="85" /><rect x="698" y="429" width="278" height="162" rx="81" /></g>
  
    <g stroke="#ffffff" stroke-width="1" opacity="0.05"><line x1="86" y1="0" x2="34.4" y2="900" /><line x1="172" y1="0" x2="120.4" y2="900" /><line x1="258" y1="0" x2="206.4" y2="900" /><line x1="344" y1="0" x2="292.4" y2="900" /><line x1="430" y1="0" x2="378.4" y2="900" /><line x1="516" y1="0" x2="464.4" y2="900" /><line x1="602" y1="0" x2="550.4" y2="900" /><line x1="688" y1="0" x2="636.4" y2="900" /><line x1="774" y1="0" x2="722.4" y2="900" /><line x1="860" y1="0" x2="808.4" y2="900" /><line x1="946" y1="0" x2="894.4" y2="900" /><line x1="1032" y1="0" x2="980.4" y2="900" /><line x1="1118" y1="0" x2="1066.4" y2="900" /><line x1="0" y1="86" x2="1200" y2="86" /><line x1="0" y1="172" x2="1200" y2="172" /><line x1="0" y1="258" x2="1200" y2="258" /><line x1="0" y1="344" x2="1200" y2="344" /><line x1="0" y1="430" x2="1200" y2="430" /><line x1="0" y1="516" x2="1200" y2="516" /><line x1="0" y1="602" x2="1200" y2="602" /><line x1="0" y1="688" x2="1200" y2="688" /><line x1="0" y1="774" x2="1200" y2="774" /><line x1="0" y1="860" x2="1200" y2="860" /></g>
    <g fill="#c8a24b" opacity="0.12"><circle cx="425" cy="849" r="3.8" /><circle cx="1149" cy="591" r="3.9" /><circle cx="972" cy="60" r="3.8" /><circle cx="124" cy="165" r="3.6" /><circle cx="668" cy="171" r="3.8" /><circle cx="809" cy="378" r="4.8" /><circle cx="543" cy="102" r="2.6" /><circle cx="245" cy="739" r="1.9" /><circle cx="982" cy="16" r="4.2" /><circle cx="684" cy="412" r="2.9" /><circle cx="675" cy="301" r="2.1" /><circle cx="392" cy="171" r="1.7" /><circle cx="1038" cy="794" r="1.5" /><circle cx="303" cy="574" r="3.0" /><circle cx="322" cy="512" r="2.5" /><circle cx="1071" cy="159" r="4.0" /><circle cx="172" cy="463" r="4.3" /><circle cx="488" cy="256" r="4.5" /><circle cx="990" cy="13" r="4.3" /><circle cx="799" cy="198" r="2.4" /><circle cx="598" cy="226" r="1.5" /><circle cx="1002" cy="426" r="1.6" /><circle cx="1112" cy="670" r="2.0" /><circle cx="873" cy="511" r="4.9" /><circle cx="937" cy="201" r="2.7" /><circle cx="694" cy="765" r="2.0" /><circle cx="376" cy="408" r="2.6" /><circle cx="711" cy="706" r="2.4" /><circle cx="1091" cy="623" r="2.0" /><circle cx="341" cy="191" r="4.2" /><circle cx="319" cy="297" r="3.8" /><circle cx="302" cy="758" r="4.1" /><circle cx="98" cy="69" r="4.7" /><circle cx="296" cy="307" r="3.3" /><circle cx="1031" cy="229" r="2.0" /><circle cx="229" cy="387" r="4.0" /><circle cx="188" cy="429" r="4.0" /><circle cx="956" cy="729" r="3.9" /><circle cx="100" cy="652" r="4.0" /><circle cx="828" cy="295" r="4.7" /><circle cx="498" cy="668" r="4.4" /><circle cx="1144" cy="685" r="4.6" /></g>
</svg>
