<svg xmlns="http://www.w3.org/2000/svg" width="1200" height="900" viewBox="0 0 1200 900" role="img">
  <defs>
    <linearGradient id="t139" x1="0" y1="0" x2="0.8" y2="1">
      <stop offset="0%" stop-color="#18174a" />
      <stop offset="100%" stop-color="#4b4899" />
    </linearGradient>
    <radialGradient id="bloom1390">
        <stop offset="0%" stop-color="#6f6bb8" stop-opacity="0.85" />
        <stop offset="60%" stop-color="#6f6bb8" stop-opacity="0.22" />
        <stop offset="100%" stop-color="#6f6bb8" stop-opacity="0" />
      </radialGradient><radialGradient id="bloom1391">
        <stop offset="0%" stop-color="#4b4899" stop-opacity="0.85" />
        <stop offset="60%" stop-color="#4b4899" stop-opacity="0.22" />
        <stop offset="100%" stop-color="#4b4899" stop-opacity="0" />
      </radialGradient>
    <radialGradient id="t139v" cx="50%" cy="42%" r="78%">
      <stop offset="55%" stop-color="#000000" stop-opacity="0" />
      <stop offset="100%" stop-color="#000000" stop-opacity="0.42" />
    </radialGradient>
    <filter id="t139g" x="0" y="0" width="100%" height="100%">
      <feTurbulence type="fractalNoise" baseFrequency="0.85" numOctaves="3" stitchTiles="stitch" result="n" />
      <feColorMatrix type="saturate" values="0" in="n" result="g" />
      <feComponentTransfer in="g" result="t">
        <feFuncA type="linear" slope="0.2" />
      </feComponentTransfer>
    </filter>
  </defs>
  <rect width="1200" height="900" fill="url(#t139)" />
  <g opacity="0.6"><circle cx="393.2" cy="382.2" r="553.4" fill="url(#bloom1390)" /><circle cx="830.4" cy="581.1" r="549.8" fill="url(#bloom1391)" /></g>
  <g fill="#ffffff"><rect x="0" y="93.3" width="1200" height="16.6" rx="8.3" opacity="0.1" /><rect x="0" y="207" width="1200" height="23.7" rx="11.9" opacity="0.1" /><rect x="0" y="311.1" width="1200" height="17.1" rx="8.5" opacity="0.1" /><rect x="0" y="424.6" width="1200" height="12.8" rx="6.4" opacity="0.1" /><rect x="0" y="533.9" width="1200" height="10.4" rx="5.2" opacity="0.1" /><rect x="0" y="634.5" width="1200" height="8" rx="4" opacity="0.1" /><rect x="0" y="746.3" width="1200" height="6" rx="3" opacity="0.1" /></g>
  <rect width="1200" height="900" fill="url(#t139v)" />
  <rect width="1200" height="900" filter="url(#t139g)" opacity="0.55" />
</svg>
