<svg xmlns="http://www.w3.org/2000/svg" width="1200" height="900" viewBox="0 0 1200 900" role="img">
  <defs>
    <linearGradient id="t234" x1="0" y1="0" x2="0.8" y2="1">
      <stop offset="0%" stop-color="#121139" />
      <stop offset="100%" stop-color="#343073" />
    </linearGradient>
    <radialGradient id="bloom2340">
        <stop offset="0%" stop-color="#6f6bb8" stop-opacity="0.85" />
        <stop offset="60%" stop-color="#6f6bb8" stop-opacity="0.22" />
        <stop offset="100%" stop-color="#6f6bb8" stop-opacity="0" />
      </radialGradient><radialGradient id="bloom2341">
        <stop offset="0%" stop-color="#4b4899" stop-opacity="0.85" />
        <stop offset="60%" stop-color="#4b4899" stop-opacity="0.22" />
        <stop offset="100%" stop-color="#4b4899" stop-opacity="0" />
      </radialGradient>
    <radialGradient id="t234v" cx="50%" cy="42%" r="78%">
      <stop offset="55%" stop-color="#000000" stop-opacity="0" />
      <stop offset="100%" stop-color="#000000" stop-opacity="0.42" />
    </radialGradient>
    <filter id="t234g" x="0" y="0" width="100%" height="100%">
      <feTurbulence type="fractalNoise" baseFrequency="0.85" numOctaves="3" stitchTiles="stitch" result="n" />
      <feColorMatrix type="saturate" values="0" in="n" result="g" />
      <feComponentTransfer in="g" result="t">
        <feFuncA type="linear" slope="0.2" />
      </feComponentTransfer>
    </filter>
  </defs>
  <rect width="1200" height="900" fill="url(#t234)" />
  <g opacity="0.6"><circle cx="144.9" cy="142.6" r="667.8" fill="url(#bloom2340)" /><circle cx="1043.8" cy="620.4" r="768.8" fill="url(#bloom2341)" /></g>
  <g fill="#ffffff"><rect x="0" y="90" width="1200" height="7.9" rx="3.9" opacity="0.1" /><rect x="0" y="209.8" width="1200" height="25.2" rx="12.6" opacity="0.1" /><rect x="0" y="314.5" width="1200" height="8.6" rx="4.3" opacity="0.1" /><rect x="0" y="415.6" width="1200" height="10.2" rx="5.1" opacity="0.1" /><rect x="0" y="529.1" width="1200" height="11.2" rx="5.6" opacity="0.1" /><rect x="0" y="637.4" width="1200" height="25.7" rx="12.9" opacity="0.1" /><rect x="0" y="741.1" width="1200" height="19" rx="9.5" opacity="0.1" /></g>
  <rect width="1200" height="900" fill="url(#t234v)" />
  <rect width="1200" height="900" filter="url(#t234g)" opacity="0.55" />
</svg>
