<svg xmlns="http://www.w3.org/2000/svg" width="1200" height="900" viewBox="0 0 1200 900" role="img">
  <defs>
    <linearGradient id="t152" x1="0" y1="0" x2="1" y2="1">
      <stop offset="0%" stop-color="#18174a" />
      <stop offset="100%" stop-color="#6f6bb8" />
    </linearGradient>
  </defs>
  <rect width="1200" height="900" fill="url(#t152)" />
  <g fill="#ffffff" opacity="0.08"><rect x="290" y="139" width="481" height="54" rx="27" /><rect x="203" y="139" width="421" height="107" rx="54" /><rect x="792" y="315" width="341" height="172" rx="86" /><rect x="383" y="660" width="593" height="113" rx="57" /><rect x="909" y="654" width="266" height="121" rx="61" /></g>
  
    <g stroke="#ffffff" stroke-width="1" opacity="0.05"><line x1="86" y1="0" x2="34.4" y2="900" /><line x1="172" y1="0" x2="120.4" y2="900" /><line x1="258" y1="0" x2="206.4" y2="900" /><line x1="344" y1="0" x2="292.4" y2="900" /><line x1="430" y1="0" x2="378.4" y2="900" /><line x1="516" y1="0" x2="464.4" y2="900" /><line x1="602" y1="0" x2="550.4" y2="900" /><line x1="688" y1="0" x2="636.4" y2="900" /><line x1="774" y1="0" x2="722.4" y2="900" /><line x1="860" y1="0" x2="808.4" y2="900" /><line x1="946" y1="0" x2="894.4" y2="900" /><line x1="1032" y1="0" x2="980.4" y2="900" /><line x1="1118" y1="0" x2="1066.4" y2="900" /><line x1="0" y1="86" x2="1200" y2="86" /><line x1="0" y1="172" x2="1200" y2="172" /><line x1="0" y1="258" x2="1200" y2="258" /><line x1="0" y1="344" x2="1200" y2="344" /><line x1="0" y1="430" x2="1200" y2="430" /><line x1="0" y1="516" x2="1200" y2="516" /><line x1="0" y1="602" x2="1200" y2="602" /><line x1="0" y1="688" x2="1200" y2="688" /><line x1="0" y1="774" x2="1200" y2="774" /><line x1="0" y1="860" x2="1200" y2="860" /></g>
    <g fill="#c8a24b" opacity="0.12"><circle cx="354" cy="59" r="4.6" /><circle cx="353" cy="618" r="2.5" /><circle cx="1034" cy="806" r="4.4" /><circle cx="377" cy="687" r="4.4" /><circle cx="116" cy="505" r="4.0" /><circle cx="433" cy="888" r="3.7" /><circle cx="923" cy="392" r="3.5" /><circle cx="110" cy="248" r="2.0" /><circle cx="1028" cy="379" r="1.8" /><circle cx="249" cy="496" r="4.9" /><circle cx="791" cy="541" r="4.3" /><circle cx="658" cy="353" r="4.6" /><circle cx="971" cy="105" r="3.4" /><circle cx="1003" cy="509" r="2.6" /><circle cx="783" cy="373" r="4.6" /><circle cx="35" cy="394" r="2.2" /><circle cx="684" cy="305" r="2.8" /><circle cx="1024" cy="511" r="2.4" /><circle cx="643" cy="98" r="1.9" /><circle cx="350" cy="429" r="3.4" /><circle cx="608" cy="694" r="1.8" /><circle cx="81" cy="728" r="2.7" /><circle cx="891" cy="593" r="4.3" /><circle cx="114" cy="303" r="2.1" /><circle cx="1049" cy="386" r="4.2" /><circle cx="1161" cy="601" r="2.5" /><circle cx="120" cy="695" r="4.0" /><circle cx="608" cy="483" r="1.6" /><circle cx="330" cy="618" r="4.2" /><circle cx="688" cy="349" r="2.7" /><circle cx="618" cy="533" r="3.2" /><circle cx="655" cy="39" r="4.8" /><circle cx="291" cy="293" r="2.7" /><circle cx="480" cy="643" r="2.9" /><circle cx="24" cy="513" r="3.4" /><circle cx="24" cy="35" r="2.3" /><circle cx="1173" cy="217" r="1.7" /><circle cx="606" cy="177" r="3.3" /><circle cx="1022" cy="243" r="4.2" /><circle cx="790" cy="87" r="2.8" /><circle cx="674" cy="578" r="3.5" /><circle cx="1035" cy="206" r="3.5" /></g>
</svg>
