<svg xmlns="http://www.w3.org/2000/svg" width="64" height="64" viewBox="0 0 64 64" role="img">
  <defs>
    <linearGradient id="m" x1="0" y1="0" x2="1" y2="1">
      <stop offset="0%" stop-color="#252260" />
      <stop offset="100%" stop-color="#121139" />
    </linearGradient>
  </defs>
  <rect width="64" height="64" rx="14" fill="url(#m)" />
  <path d="M47.7,36.5L37.3,35.3L38.5,45.7L32,37.5L25.5,45.7L26.7,35.3L16.3,36.5L24.5,30L16.3,23.5L26.7,24.7L25.5,14.3L32,22.5L38.5,14.3L37.3,24.7L47.7,23.5L39.5,30Z" fill="none" stroke="#d2b65e" stroke-width="1.5" opacity="0.75" />
  <path d="M23,44 L23,28.9 C23,20.1 27.5,18 32,18 C36.5,18 41,20.1 41,28.9 L41,44 Z" fill="none" stroke="#ffffff" stroke-width="2.4" stroke-linejoin="round" />
  <line x1="18" y1="50" x2="46" y2="50" stroke="#c8a24b" stroke-width="3.2" stroke-linecap="round" />
</svg>
